<svg xmlns="http://www.w3.org/2000/svg" version="1.1" xmlns:xlink="http://www.w3.org/1999/xlink" xmlns:svgjs="http://svgjs.dev/svgjs" width="1000" height="622" viewBox="0 0 1000 622"><g transform="matrix(1,0,0,1,0.45848021411717355,0.2518218623481516)"><svg viewBox="0 0 397 247" data-background-color="#ffffff" preserveAspectRatio="xMidYMid meet" height="622" width="1000" xmlns="http://www.w3.org/2000/svg" xmlns:xlink="http://www.w3.org/1999/xlink"><g id="tight-bounds" transform="matrix(1,0,0,1,1.6647293194938584,-0.09999999999999432)"><svg viewBox="0 0 395.52 247.2" height="247.2" width="395.52"><g><svg></svg></g><g><svg viewBox="0 0 395.52 247.2" height="247.2" width="395.52"><g transform="matrix(1,0,0,1,39.55199999999999,105.3722665849548)"><svg viewBox="0 0 316.416 36.455466830090394" height="36.455466830090394" width="316.416"><g><svg viewBox="0 0 316.416 36.455466830090394" height="36.455466830090394" width="316.416"><g><svg viewBox="0 0 316.416 36.455466830090394" height="36.455466830090394" width="316.416"><g><svg viewBox="0 0 316.416 36.455466830090394" height="36.455466830090394" width="316.416"><g><svg viewBox="0 0 316.416 36.455466830090394" height="36.455466830090394" width="316.416"><g><svg viewBox="0 0 316.416 36.455466830090394" height="36.455466830090394" width="316.416"><g transform="matrix(1,0,0,1,0,0)"><svg width="316.416" viewBox="-0.24 -36.28 318.68 36.72" height="36.455466830090394" data-palette-color="#00bbff"><path d="M42.72 0L33.54 0Q33.59-0.05 33.59-0.2L33.59-0.2Q33.59-0.54 33.33-1.34 33.06-2.15 32.74-3.05 32.42-3.96 32.08-4.76 31.74-5.57 31.59-5.91L31.59-5.91Q26.42-6.1 21.22-6.05 16.02-6.01 10.84-5.81L10.84-5.81Q10.69-5.47 10.35-4.66 10.01-3.86 9.69-2.98 9.38-2.1 9.11-1.32 8.84-0.54 8.84-0.2L8.84-0.2Q8.84-0.05 8.89 0L8.89 0-0.24 0Q0.05-0.34 0.46-1.1 0.88-1.86 1.29-2.71 1.71-3.56 2.1-4.37 2.49-5.18 2.69-5.62L2.69-5.62Q3.22-6.69 4.39-9.08 5.57-11.47 7.01-14.53 8.45-17.58 9.99-20.92 11.52-24.27 12.79-27.25 14.06-30.22 14.87-32.47 15.67-34.72 15.67-35.55L15.67-35.55Q15.67-35.64 15.65-35.77 15.63-35.89 15.53-35.89L15.53-35.89 26.95-35.89Q26.86-35.89 26.83-35.77 26.81-35.64 26.81-35.55L26.81-35.55Q26.81-34.72 27.61-32.47 28.42-30.22 29.69-27.25 30.96-24.27 32.5-20.92 34.03-17.58 35.47-14.53 36.91-11.47 38.06-9.08 39.21-6.69 39.75-5.62L39.75-5.62Q39.94-5.18 40.33-4.37 40.72-3.56 41.16-2.71 41.6-1.86 42.02-1.1 42.43-0.34 42.72 0L42.72 0ZM12.84-10.45L14.89-10.4Q22.17-10.4 29.49-10.69L29.49-10.69Q27.49-15.14 25.51-19.48 23.54-23.83 21.24-28.08L21.24-28.08Q18.9-23.78 16.89-19.34 14.89-14.89 12.84-10.45L12.84-10.45ZM62.45-4.74L62.45-4.74Q64.26-4.74 66.31-5.18 68.36-5.62 70.07-6.62 71.77-7.62 72.9-9.16 74.02-10.69 74.02-12.89L74.02-12.89Q74.02-16.41 74.12-19.9 74.22-23.39 74.22-26.9L74.22-26.9Q74.22-27.54 74.22-28.83 74.22-30.13 74.17-31.49 74.12-32.86 74.02-34.08 73.92-35.3 73.73-35.89L73.73-35.89 82.61-35.89Q82.18-35.45 81.96-34.69 81.74-33.94 81.64-33.08 81.54-32.23 81.54-31.42 81.54-30.62 81.54-30.03L81.54-30.03Q81.54-25.73 81.69-21.56 81.83-17.38 81.83-13.09L81.83-13.09Q81.83-10.64 80.95-8.72 80.08-6.79 78.56-5.32 77.05-3.86 75.07-2.81 73.09-1.76 70.92-1.1 68.75-0.44 66.53-0.15 64.3 0.15 62.3 0.15L62.3 0.15Q59.23 0.15 55.88-0.56 52.54-1.27 49.75-2.83 46.97-4.39 45.14-6.91 43.31-9.42 43.31-13.09L43.31-13.09Q43.31-17.38 43.45-21.56 43.6-25.73 43.6-29.98L43.6-29.98Q43.6-30.57 43.6-31.4 43.6-32.23 43.5-33.08 43.41-33.94 43.19-34.69 42.97-35.45 42.53-35.89L42.53-35.89 51.71-35.89Q51.51-35.3 51.41-34.08 51.32-32.86 51.27-31.49 51.22-30.13 51.22-28.83 51.22-27.54 51.22-26.9L51.22-26.9Q51.22-23.39 51.32-19.9 51.41-16.41 51.41-12.89L51.41-12.89Q51.41-10.69 52.44-9.16 53.46-7.62 55.05-6.64 56.64-5.66 58.59-5.2 60.54-4.74 62.45-4.74ZM119.58-30.96Q119.38-31.05 118.28-31.1 117.18-31.15 115.64-31.18 114.11-31.2 112.32-31.23 110.54-31.25 108.95-31.25 107.37-31.25 106.17-31.25 104.98-31.25 104.58-31.25L104.58-31.25Q104.19-27.59 104.17-23.93 104.15-20.26 104.15-16.6L104.15-16.6Q104.15-14.26 104.1-11.96 104.05-9.67 104.05-7.32L104.05-7.32Q104.05-6.93 104.05-5.83 104.05-4.74 104.1-3.52 104.15-2.29 104.32-1.27 104.49-0.24 104.78 0L104.78 0 96.24 0Q96.58-0.29 96.75-1.88 96.92-3.47 97.04-5.71 97.16-7.96 97.19-10.6 97.21-13.23 97.21-15.63 97.21-18.02 97.19-19.85 97.16-21.68 97.16-22.41L97.16-22.41Q97.16-24.61 97.14-26.81 97.11-29 96.97-31.2L96.97-31.2Q93.79-31.2 90.67-31.18 87.54-31.15 84.37-31.1L84.37-31.1Q83.88-31.1 83.12-31.08 82.37-31.05 81.54-31.05 80.71-31.05 79.95-31.01 79.19-30.96 78.75-30.86L78.75-30.86 78.61-35.94 119.62-36.18 119.58-30.96ZM138.47-36.28L138.47-36.28Q142.47-36.28 146.28-34.96 150.09-33.64 153.04-31.18 156-28.71 157.78-25.22 159.56-21.73 159.56-17.38L159.56-17.38Q159.56-13.09 157.68-9.77 155.8-6.45 152.78-4.17 149.75-1.9 145.94-0.73 142.13 0.44 138.27 0.44L138.27 0.44Q134.07 0.44 130.29-0.71 126.51-1.86 123.65-4.13 120.79-6.4 119.08-9.79 117.38-13.18 117.38-17.72L117.38-17.72Q117.38-22.22 119.16-25.68 120.94-29.15 123.87-31.49 126.8-33.84 130.61-35.06 134.42-36.28 138.47-36.28ZM125.58-17.77L125.58-17.77Q125.58-15.04 126.53-12.6 127.48-10.16 129.19-8.33 130.9-6.49 133.22-5.42 135.54-4.35 138.32-4.35L138.32-4.35Q140.91-4.35 143.28-5.44 145.65-6.54 147.43-8.37 149.21-10.21 150.29-12.57 151.36-14.94 151.36-17.53L151.36-17.53Q151.36-21.09 150.33-23.71 149.31-26.32 147.55-28.05 145.79-29.79 143.45-30.64 141.11-31.49 138.47-31.49L138.47-31.49Q135.73-31.49 133.39-30.35 131.05-29.2 129.31-27.29 127.58-25.39 126.58-22.92 125.58-20.46 125.58-17.77ZM199.79-25.29L199.79-25.29Q199.79-22.56 198.18-20.68 196.57-18.8 193.98-17.55 191.4-16.31 188.17-15.6 184.95-14.89 181.75-14.55 178.55-14.21 175.7-14.11 172.84-14.01 170.99-14.01L170.99-14.01Q170.99-12.3 170.96-10.67 170.94-9.03 170.94-7.32L170.94-7.32Q170.94-6.88 170.94-5.81 170.94-4.74 170.99-3.54 171.03-2.34 171.21-1.32 171.38-0.29 171.67 0L171.67 0 163.12 0Q163.42-0.29 163.61-1.9 163.81-3.52 163.93-5.76 164.05-8.01 164.08-10.64 164.1-13.28 164.1-15.65 164.1-18.02 164.08-19.87 164.05-21.73 164.05-22.41L164.05-22.41Q164.05-22.85 164.08-23.97 164.1-25.1 164.08-26.56 164.05-28.03 163.98-29.64 163.91-31.25 163.71-32.62 163.52-33.98 163.17-34.91 162.83-35.84 162.34-35.99L162.34-35.99 169.37-35.99Q170.06-35.99 171.21-36.01 172.35-36.04 173.04-35.94L173.04-35.94Q175.62-35.94 178.16-35.84 180.7-35.74 183.29-35.5L183.29-35.5Q184.8-35.35 186.64-35.11 188.47-34.86 190.3-34.4 192.13-33.94 193.84-33.2 195.55-32.47 196.87-31.4 198.18-30.32 198.99-28.81 199.79-27.29 199.79-25.29ZM190.96-25.34L190.96-25.34Q190.96-26.76 189.93-27.71 188.91-28.66 187.32-29.27 185.73-29.88 183.75-30.2 181.78-30.52 179.85-30.64 177.92-30.76 176.31-30.76 174.7-30.76 173.77-30.76L173.77-30.76 171.43-30.76Q171.08-27.78 171.03-24.8 170.99-21.83 170.99-18.85L170.99-18.85Q172.94-18.85 174.87-18.9 176.8-18.95 178.75-19.09L178.75-19.09Q180.17-19.19 182.27-19.43 184.37-19.68 186.29-20.31 188.22-20.95 189.59-22.14 190.96-23.34 190.96-25.34ZM237.05 0L227.87 0Q227.92-0.05 227.92-0.2L227.92-0.2Q227.92-0.54 227.65-1.34 227.38-2.15 227.06-3.05 226.75-3.96 226.4-4.76 226.06-5.57 225.92-5.91L225.92-5.91Q220.74-6.1 215.54-6.05 210.34-6.01 205.16-5.81L205.16-5.81Q205.02-5.47 204.68-4.66 204.33-3.86 204.02-2.98 203.7-2.1 203.43-1.32 203.16-0.54 203.16-0.2L203.16-0.2Q203.16-0.05 203.21 0L203.21 0 194.08 0Q194.37-0.34 194.79-1.1 195.2-1.86 195.62-2.71 196.03-3.56 196.42-4.37 196.81-5.18 197.01-5.62L197.01-5.62Q197.55-6.69 198.72-9.08 199.89-11.47 201.33-14.53 202.77-17.58 204.31-20.92 205.85-24.27 207.12-27.25 208.39-30.22 209.19-32.47 210-34.72 210-35.55L210-35.55Q210-35.64 209.97-35.77 209.95-35.89 209.85-35.89L209.85-35.89 221.28-35.89Q221.18-35.89 221.15-35.77 221.13-35.64 221.13-35.55L221.13-35.55Q221.13-34.72 221.94-32.47 222.74-30.22 224.01-27.25 225.28-24.27 226.82-20.92 228.36-17.58 229.8-14.53 231.24-11.47 232.38-9.08 233.53-6.69 234.07-5.62L234.07-5.62Q234.26-5.18 234.66-4.37 235.05-3.56 235.49-2.71 235.93-1.86 236.34-1.1 236.76-0.34 237.05 0L237.05 0ZM207.17-10.45L209.22-10.4Q216.49-10.4 223.82-10.69L223.82-10.69Q221.81-15.14 219.84-19.48 217.86-23.83 215.56-28.08L215.56-28.08Q213.22-23.78 211.22-19.34 209.22-14.89 207.17-10.45L207.17-10.45ZM261.75-14.26L261.75-14.26Q262.19-13.87 263.51-12.65 264.83-11.43 266.56-9.86 268.3-8.3 270.22-6.59 272.15-4.88 273.84-3.44 275.52-2 276.74-1.03 277.96-0.05 278.31 0L278.31 0 268.2 0Q267.9-0.39 267.37-0.95 266.83-1.51 266.24-2.08 265.66-2.64 265.1-3.17 264.54-3.71 264.15-4.05L264.15-4.05Q261.75-6.4 259.34-8.62 256.92-10.84 254.38-13.04L254.38-13.04Q252.38-12.79 250.42-12.72 248.47-12.65 246.47-12.55L246.47-12.55Q246.42-11.23 246.42-9.94 246.42-8.64 246.42-7.32L246.42-7.32Q246.42-6.88 246.42-5.81 246.42-4.74 246.47-3.52 246.52-2.29 246.69-1.29 246.86-0.29 247.15 0L247.15 0 238.61 0Q238.9-0.29 239.1-1.88 239.29-3.47 239.39-5.71 239.49-7.96 239.54-10.57 239.58-13.18 239.58-15.58 239.58-17.97 239.56-19.82 239.54-21.68 239.54-22.41L239.54-22.41Q239.54-22.85 239.56-23.97 239.58-25.1 239.56-26.56 239.54-28.03 239.46-29.64 239.39-31.25 239.19-32.62 239-33.98 238.66-34.91 238.32-35.84 237.83-35.99L237.83-35.99Q237.97-35.99 238.78-35.99 239.58-35.99 240.73-35.99 241.88-35.99 243.17-35.99 244.47-35.99 245.61-35.99 246.76-35.99 247.54-35.96 248.32-35.94 248.47-35.94L248.47-35.94Q250.23-35.94 252.94-35.86 255.65-35.79 258.7-35.45 261.75-35.11 264.83-34.45 267.9-33.79 270.37-32.57 272.84-31.35 274.4-29.52 275.96-27.69 275.96-25.05L275.96-25.05Q275.96-22.51 274.5-20.68 273.03-18.85 270.86-17.58 268.69-16.31 266.22-15.5 263.75-14.7 261.75-14.26ZM267.12-25.15L267.12-25.15Q267.12-26.61 265.9-27.61 264.68-28.61 262.75-29.22 260.82-29.83 258.46-30.13 256.09-30.42 253.84-30.54 251.6-30.66 249.72-30.66 247.84-30.66 246.86-30.66L246.86-30.66Q246.62-27.93 246.54-25.22 246.47-22.51 246.47-19.78L246.47-19.78 246.47-18.46Q248.37-18.51 250.28-18.55 252.18-18.6 254.04-18.75L254.04-18.75Q254.97-18.8 256.28-18.95 257.6-19.09 259.07-19.36 260.53-19.63 261.97-20.07 263.41-20.51 264.56-21.19 265.71-21.88 266.42-22.85 267.12-23.83 267.12-25.15ZM295.69-20.7L295.69-20.7Q296.13-20.26 297.3-19.17 298.47-18.07 300.08-16.58 301.69-15.09 303.6-13.31 305.5-11.52 307.45-9.72 309.41-7.91 311.26-6.23 313.12-4.54 314.63-3.22 316.14-1.9 317.17-1.1 318.2-0.29 318.44-0.24L318.44-0.24 308.58 0Q308.19-0.54 307.65-1.05 307.11-1.56 306.62-2.1L306.62-2.1Q302.72-6.01 298.76-9.79 294.81-13.57 290.66-17.19L290.66-17.19 286.95-14.55Q286.95-12.74 286.92-10.94 286.9-9.13 286.9-7.32L286.9-7.32Q286.9-6.88 286.9-5.81 286.9-4.74 286.95-3.52 286.99-2.29 287.17-1.29 287.34-0.29 287.63 0L287.63 0 279.08 0Q279.38-0.29 279.57-1.88 279.77-3.47 279.89-5.74 280.01-8.01 280.04-10.62 280.06-13.23 280.06-15.6 280.06-17.97 280.04-19.82 280.01-21.68 280.01-22.41L280.01-22.41Q280.01-22.85 280.04-23.97 280.06-25.1 280.04-26.56 280.01-28.03 279.94-29.64 279.87-31.25 279.67-32.62 279.47-33.98 279.13-34.91 278.79-35.84 278.3-35.99L278.3-35.99 289.24-35.99Q288.65-35.99 288.26-35.03 287.87-34.08 287.63-32.62 287.38-31.15 287.24-29.42 287.09-27.69 287.04-26.07 286.99-24.46 286.99-23.22 286.99-21.97 286.99-21.53L286.99-21.53Q287.68-21.92 289.34-23.07 291-24.22 293.1-25.71 295.2-27.2 297.49-28.88 299.79-30.57 301.72-32.03 303.64-33.5 304.96-34.59 306.28-35.69 306.48-36.04L306.48-36.04 318-35.99Q316.97-35.45 315.68-34.52 314.39-33.59 313.41-32.91L313.41-32.91Q308.92-29.88 304.52-26.86 300.13-23.83 295.69-20.7Z" opacity="1" transform="matrix(1,0,0,1,0,0)" fill="#00bbff" class="undefined-text-0" data-fill-palette-color="primary" id="text-0"></path></svg></g></svg></g></svg></g></svg></g></svg></g></svg></g></svg></g><g mask="url(#42eb0ab2-4918-44a4-8672-1f3090983c43)"><g transform="matrix(5.382572221183095, 0, 0, 5.382572221183095, 1, 27.977700628787503)"><svg xmlns="http://www.w3.org/2000/svg" data-name="Layer 1" viewBox="13.72 34.685357722261465 73.11002692194326 35.53033584756792" x="0" y="0" height="35.53033584756792" width="73.11002692194326" class="icon-none" data-fill-palette-color="accent" id="none"><path class="cls-1" d="M53.44 35.3l-0.39 0A12 12 0 0 0 50 36C43.84 38.3 39.52 41.63 33.27 47l-0.68 0.58C26.32 48.92 18.91 50.81 15.51 55a4.08 4.08 0 0 0-0.73 3.84c0.28 0.87 0.61 2 1 3.06H15a1.28 1.28 0 0 0-1.28 1.28v2A1.28 1.28 0 0 0 15 66.39h7.71a7.52 7.52 0 0 0 13.1 0h29a7.52 7.52 0 0 0 13.1 0h1l7.39-4a1 1 0 0 0 0.53-0.89V56.3a0.85 0.85 0 0 0-0.85-0.85H85.22V41.23a6.35 6.35 0 0 0-6.16-6.09C67.34 34.5 62.19 34.52 53.44 35.3ZM26 62.69a3.16 3.16 0 1 1 3.16 3.16l-0.4 0A3.16 3.16 0 0 1 26 62.69Zm27.4-12.29a1.28 1.28 0 0 1-1.28 1.28H40.31a1.34 1.34 0 0 1-1.36-1.29c0-0.28 0-0.55 0-0.81a3 3 0 0 1 1.1-2.09c3.94-3.31 6.88-5.46 11-7a8.47 8.47 0 0 1 1.12-0.33 1.09 1.09 0 0 1 1.3 1.1v9.09Zm17.85 9.12a3.16 3.16 0 1 1-3.16 3.16A3.16 3.16 0 0 1 71.29 59.53Z" fill="none" stroke="#3996b8" stroke-miterlimit="10"></path></svg></g></g></svg></g><defs><mask id="42eb0ab2-4918-44a4-8672-1f3090983c43"><rect width="640" height="400" fill="white"></rect><rect width="348.05760000000004" height="53.66798840485123" fill="black" x="145.97119999999998" y="173.16600579757437" id="transform-me" transform="matrix(1,0,0,1,-122.24000000000001,-76.4)"></rect></mask></defs></svg><rect width="395.52" height="247.2" fill="none" stroke="none" visibility="hidden"></rect></g></svg></g></svg>